<svg width="915.43" height="99.463" viewBox="0 0 915.43 99.463" xmlns="http://www.w3.org/2000/svg"><g id="svgGroup" stroke-linecap="round" fill-rule="evenodd" font-size="9pt" stroke="#ffffff" stroke-width="0.25mm" fill="#ffffff" style="stroke:#ffffff;stroke-width:0.25mm;fill:#ffffff"><path d="M 305.273 71.436 L 305.273 75.977 L 266.26 75.977 L 266.26 4.59 L 305.273 4.59 L 305.273 9.131 L 271.289 9.131 L 271.289 36.182 L 303.369 36.182 L 303.369 40.723 L 271.289 40.723 L 271.289 71.436 L 305.273 71.436 Z M 5.029 44.043 L 5.029 75.977 L 0 75.977 L 0 4.59 L 39.063 4.59 L 39.063 9.131 L 5.029 9.131 L 5.029 39.551 L 37.207 39.551 L 37.207 44.043 L 5.029 44.043 Z M 188.428 41.26 L 188.428 75.977 L 183.545 75.977 L 183.545 41.553 Q 183.545 36.718 182.195 33.452 A 11.002 11.002 0 0 0 179.932 29.932 Q 176.714 26.627 170.9 26.265 A 23.64 23.64 0 0 0 169.434 26.221 A 23.935 23.935 0 0 0 164.142 26.77 Q 159.179 27.895 156.079 31.323 Q 151.465 36.426 151.465 46.729 L 151.465 75.977 L 146.533 75.977 L 146.533 22.9 L 150.537 22.9 L 151.27 32.568 L 151.563 32.568 A 18.864 18.864 0 0 1 155.444 27.173 A 17.255 17.255 0 0 1 159.582 24.203 A 21.114 21.114 0 0 1 161.523 23.315 A 19.621 19.621 0 0 1 165.826 22.171 A 27.019 27.019 0 0 1 169.922 21.875 A 27.257 27.257 0 0 1 175.324 22.377 Q 178.511 23.022 180.964 24.495 A 14.445 14.445 0 0 1 183.643 26.562 A 14.287 14.287 0 0 1 187.037 32.015 Q 188.428 35.864 188.428 41.26 Z M 362.109 41.26 L 362.109 75.977 L 357.227 75.977 L 357.227 41.553 Q 357.227 36.718 355.877 33.452 A 11.002 11.002 0 0 0 353.613 29.932 Q 350.395 26.627 344.582 26.265 A 23.64 23.64 0 0 0 343.115 26.221 A 23.935 23.935 0 0 0 337.824 26.77 Q 332.861 27.895 329.761 31.323 Q 325.146 36.426 325.146 46.729 L 325.146 75.977 L 320.215 75.977 L 320.215 22.9 L 324.219 22.9 L 324.951 32.568 L 325.244 32.568 A 18.864 18.864 0 0 1 329.126 27.173 A 17.255 17.255 0 0 1 333.263 24.203 A 21.114 21.114 0 0 1 335.205 23.315 A 19.621 19.621 0 0 1 339.508 22.171 A 27.019 27.019 0 0 1 343.604 21.875 A 27.257 27.257 0 0 1 349.006 22.377 Q 352.193 23.022 354.645 24.495 A 14.445 14.445 0 0 1 357.324 26.562 A 14.287 14.287 0 0 1 360.719 32.015 Q 362.109 35.864 362.109 41.26 Z M 777.441 66.162 L 777.1 66.162 A 277.559 277.559 0 0 1 777.292 70.474 A 314.146 314.146 0 0 1 777.344 71.973 A 194.311 194.311 0 0 1 777.417 74.915 A 162.241 162.241 0 0 1 777.441 77.686 L 777.441 99.463 L 772.461 99.463 L 772.461 22.9 L 776.563 22.9 L 777.148 33.496 L 777.441 33.496 A 20.938 20.938 0 0 1 780.293 28.802 A 24.272 24.272 0 0 1 781.152 27.783 A 16.649 16.649 0 0 1 785.613 24.272 A 20.186 20.186 0 0 1 787.207 23.486 A 18.08 18.08 0 0 1 791.223 22.278 Q 793.408 21.875 795.947 21.875 A 24.424 24.424 0 0 1 802.721 22.764 A 17.935 17.935 0 0 1 811.841 28.76 A 21.997 21.997 0 0 1 815.596 35.733 Q 816.656 38.87 817.12 42.698 A 53.085 53.085 0 0 1 817.48 49.072 A 50.054 50.054 0 0 1 817.054 55.794 Q 816.41 60.537 814.795 64.282 Q 812.109 70.508 807.153 73.73 A 19.703 19.703 0 0 1 799.503 76.622 A 26.2 26.2 0 0 1 795.264 76.953 A 26.878 26.878 0 0 1 791.315 76.677 Q 788.93 76.323 786.938 75.513 A 18.011 18.011 0 0 1 783.245 73.504 A 15.178 15.178 0 0 1 781.055 71.606 A 18.259 18.259 0 0 1 777.441 66.162 Z M 416.26 32.617 L 416.65 32.617 A 118.418 118.418 0 0 1 416.479 29.932 A 145.692 145.692 0 0 1 416.357 27.051 A 191.78 191.78 0 0 1 416.284 24.194 A 146.551 146.551 0 0 1 416.26 21.582 L 416.26 0 L 421.191 0 L 421.191 75.977 L 417.188 75.977 L 416.553 66.26 L 416.26 66.26 Q 414.941 69.189 412.622 71.631 A 15.983 15.983 0 0 1 408.498 74.73 A 19.364 19.364 0 0 1 406.836 75.513 A 17.736 17.736 0 0 1 403.145 76.57 Q 401.406 76.881 399.417 76.94 A 31.741 31.741 0 0 1 398.486 76.953 A 27.5 27.5 0 0 1 391.757 76.179 A 18.201 18.201 0 0 1 381.909 70.093 A 22.171 22.171 0 0 1 377.971 62.739 Q 376.932 59.559 376.51 55.699 A 51.586 51.586 0 0 1 376.221 50.098 A 50.511 50.511 0 0 1 376.807 42.131 Q 378.097 34.07 382.227 29.102 A 19.59 19.59 0 0 1 395.113 22.129 A 28.343 28.343 0 0 1 398.975 21.875 Q 403.383 21.875 406.688 23.181 A 15.44 15.44 0 0 1 406.958 23.291 A 17.616 17.616 0 0 1 410.907 25.548 A 15.497 15.497 0 0 1 412.671 27.124 A 17.524 17.524 0 0 1 416.26 32.617 Z M 575.732 46.387 L 575.732 49.951 L 537.402 49.951 A 38.13 38.13 0 0 0 537.896 56.291 Q 538.982 62.72 542.456 66.748 A 16.386 16.386 0 0 0 551.723 72.091 A 24.88 24.88 0 0 0 556.934 72.607 A 50.974 50.974 0 0 0 560.864 72.464 Q 562.766 72.317 564.424 72.018 A 27.737 27.737 0 0 0 565.503 71.802 Q 569.141 70.996 573.584 69.043 L 573.584 73.584 A 38.217 38.217 0 0 1 567.236 75.812 A 34.612 34.612 0 0 1 565.771 76.147 A 36.895 36.895 0 0 1 561.852 76.726 Q 559.799 76.923 557.498 76.949 A 62.467 62.467 0 0 1 556.787 76.953 A 32.125 32.125 0 0 1 550.727 76.412 Q 547.063 75.708 544.114 74.089 A 19.544 19.544 0 0 1 543.286 73.608 Q 537.842 70.264 535.083 64.16 A 30.194 30.194 0 0 1 532.852 56.645 A 41.095 41.095 0 0 1 532.324 49.902 A 40.943 40.943 0 0 1 533.075 41.901 A 32.845 32.845 0 0 1 534.985 35.596 A 24.31 24.31 0 0 1 539.023 28.996 A 21.725 21.725 0 0 1 542.798 25.562 A 19.425 19.425 0 0 1 550.789 22.272 A 26.483 26.483 0 0 1 555.469 21.875 A 23.939 23.939 0 0 1 560.586 22.394 A 16.915 16.915 0 0 1 566.772 25.049 A 18.749 18.749 0 0 1 573.074 32.726 A 22.849 22.849 0 0 1 573.511 33.74 A 30.075 30.075 0 0 1 575.352 40.759 A 39.926 39.926 0 0 1 575.732 46.387 Z M 676.611 46.387 L 676.611 49.951 L 638.281 49.951 A 38.13 38.13 0 0 0 638.775 56.291 Q 639.861 62.72 643.335 66.748 A 16.386 16.386 0 0 0 652.602 72.091 A 24.88 24.88 0 0 0 657.812 72.607 A 50.974 50.974 0 0 0 661.743 72.464 Q 663.645 72.317 665.303 72.018 A 27.737 27.737 0 0 0 666.382 71.802 Q 670.02 70.996 674.463 69.043 L 674.463 73.584 A 38.217 38.217 0 0 1 668.115 75.812 A 34.612 34.612 0 0 1 666.65 76.147 A 36.895 36.895 0 0 1 662.731 76.726 Q 660.678 76.923 658.377 76.949 A 62.467 62.467 0 0 1 657.666 76.953 A 32.125 32.125 0 0 1 651.606 76.412 Q 647.942 75.708 644.993 74.089 A 19.544 19.544 0 0 1 644.165 73.608 Q 638.721 70.264 635.962 64.16 A 30.194 30.194 0 0 1 633.731 56.645 A 41.095 41.095 0 0 1 633.203 49.902 A 40.943 40.943 0 0 1 633.954 41.901 A 32.845 32.845 0 0 1 635.864 35.596 A 24.31 24.31 0 0 1 639.902 28.996 A 21.725 21.725 0 0 1 643.677 25.562 A 19.425 19.425 0 0 1 651.668 22.272 A 26.483 26.483 0 0 1 656.348 21.875 A 23.939 23.939 0 0 1 661.465 22.394 A 16.915 16.915 0 0 1 667.651 25.049 A 18.749 18.749 0 0 1 673.953 32.726 A 22.849 22.849 0 0 1 674.39 33.74 A 30.075 30.075 0 0 1 676.23 40.759 A 39.926 39.926 0 0 1 676.611 46.387 Z M 872.314 46.387 L 872.314 49.951 L 833.984 49.951 A 38.13 38.13 0 0 0 834.478 56.291 Q 835.564 62.72 839.038 66.748 A 16.386 16.386 0 0 0 848.305 72.091 A 24.88 24.88 0 0 0 853.516 72.607 A 50.974 50.974 0 0 0 857.446 72.464 Q 859.348 72.317 861.006 72.018 A 27.737 27.737 0 0 0 862.085 71.802 Q 865.723 70.996 870.166 69.043 L 870.166 73.584 A 38.217 38.217 0 0 1 863.818 75.812 A 34.612 34.612 0 0 1 862.354 76.147 A 36.895 36.895 0 0 1 858.434 76.726 Q 856.381 76.923 854.08 76.949 A 62.467 62.467 0 0 1 853.369 76.953 A 32.125 32.125 0 0 1 847.309 76.412 Q 843.645 75.708 840.696 74.089 A 19.544 19.544 0 0 1 839.868 73.608 Q 834.424 70.264 831.665 64.16 A 30.194 30.194 0 0 1 829.434 56.645 A 41.095 41.095 0 0 1 828.906 49.902 A 40.943 40.943 0 0 1 829.657 41.901 A 32.845 32.845 0 0 1 831.567 35.596 A 24.31 24.31 0 0 1 835.605 28.996 A 21.725 21.725 0 0 1 839.38 25.562 A 19.425 19.425 0 0 1 847.371 22.272 A 26.483 26.483 0 0 1 852.051 21.875 A 23.939 23.939 0 0 1 857.168 22.394 A 16.915 16.915 0 0 1 863.354 25.049 A 18.749 18.749 0 0 1 869.656 32.726 A 22.849 22.849 0 0 1 870.093 33.74 A 30.075 30.075 0 0 1 871.934 40.759 A 39.926 39.926 0 0 1 872.314 46.387 Z M 607.031 75.977 L 601.855 75.977 L 581.494 22.9 L 586.719 22.9 L 600.342 59.082 A 144.906 144.906 0 0 1 601.96 63.453 A 124.02 124.02 0 0 1 602.612 65.356 Q 603.581 68.263 604.252 70.643 A 84.368 84.368 0 0 1 604.297 70.801 L 604.541 70.801 A 509.559 509.559 0 0 1 605.363 68.256 Q 605.801 66.913 606.292 65.428 A 839.177 839.177 0 0 1 606.323 65.332 A 150.844 150.844 0 0 1 607.948 60.681 A 169.371 169.371 0 0 1 608.545 59.082 L 622.168 22.9 L 627.441 22.9 L 607.031 75.977 Z M 483.105 75.977 L 466.016 75.977 L 466.016 4.59 L 485.352 4.59 A 54.176 54.176 0 0 1 493.719 5.201 Q 499.81 6.154 504.541 8.594 A 26.68 26.68 0 0 1 516.309 20.386 Q 519.936 27.441 520.277 37.481 A 62.351 62.351 0 0 1 520.313 39.6 A 56.239 56.239 0 0 1 519.668 48.357 Q 518.663 54.729 516.089 59.668 A 27.507 27.507 0 0 1 503.589 71.875 A 36.782 36.782 0 0 1 494.966 74.819 Q 490.934 75.687 486.279 75.904 A 68.153 68.153 0 0 1 483.105 75.977 Z M 227.686 71.484 L 227.686 75.586 A 22.577 22.577 0 0 1 226.216 76.033 Q 225.457 76.237 224.603 76.419 A 38.92 38.92 0 0 1 224.023 76.538 Q 221.924 76.953 219.385 76.953 A 19.878 19.878 0 0 1 216.228 76.716 Q 214.465 76.432 213.008 75.809 A 11.053 11.053 0 0 1 211.914 75.269 A 10.295 10.295 0 0 1 207.877 71.075 A 13.066 13.066 0 0 1 207.422 70.142 Q 206.245 67.466 205.983 63.654 A 33.234 33.234 0 0 1 205.908 61.377 L 205.908 27.002 L 197.998 27.002 L 197.998 24.072 L 205.859 22.559 L 207.568 10.059 L 210.84 10.059 L 210.84 22.9 L 227.393 22.9 L 227.393 27.002 L 210.84 27.002 L 210.84 61.084 A 24.708 24.708 0 0 0 211.027 64.233 Q 211.234 65.839 211.67 67.148 A 9.644 9.644 0 0 0 212.964 69.751 A 6.685 6.685 0 0 0 216.559 72.254 Q 218.034 72.705 219.922 72.705 A 27.18 27.18 0 0 0 222.601 72.578 A 22.228 22.228 0 0 0 224.194 72.363 A 25.515 25.515 0 0 0 225.946 72 Q 226.765 71.798 227.482 71.555 A 15.566 15.566 0 0 0 227.686 71.484 Z M 484.229 9.033 L 471.045 9.033 L 471.045 71.533 L 482.861 71.533 Q 493.58 71.533 500.712 68.043 A 23.682 23.682 0 0 0 507.031 63.599 A 24.857 24.857 0 0 0 513.037 53.68 Q 514.351 49.775 514.803 45.016 A 55.307 55.307 0 0 0 515.039 39.795 A 52.13 52.13 0 0 0 514.572 32.615 Q 513.794 27.026 511.719 22.754 A 21.977 21.977 0 0 0 501.562 12.476 A 29.454 29.454 0 0 0 494.88 10.122 Q 491.617 9.374 487.806 9.14 A 58.397 58.397 0 0 0 484.229 9.033 Z M 77.539 22.9 L 76.758 27.441 A 24.773 24.773 0 0 0 73.486 26.782 A 25.313 25.313 0 0 0 71.316 26.593 A 30.707 30.707 0 0 0 69.922 26.563 A 17.073 17.073 0 0 0 66.155 26.962 A 13.848 13.848 0 0 0 63.208 27.979 Q 60.254 29.395 58.203 32.031 Q 56.152 34.668 55.078 38.379 Q 54.004 42.09 54.004 46.68 L 54.004 75.977 L 49.023 75.977 L 49.023 22.9 L 53.271 22.9 L 53.76 32.91 L 54.053 32.91 Q 55.273 29.834 57.495 27.368 A 16.432 16.432 0 0 1 62.878 23.443 A 19.507 19.507 0 0 1 62.891 23.438 A 15.792 15.792 0 0 1 67.435 22.146 A 20.151 20.151 0 0 1 70.117 21.973 Q 72.217 21.973 74.072 22.217 A 27.657 27.657 0 0 1 76.455 22.633 A 23.323 23.323 0 0 1 77.539 22.9 Z M 915.43 22.9 L 914.648 27.441 A 24.773 24.773 0 0 0 911.377 26.782 A 25.313 25.313 0 0 0 909.206 26.593 A 30.707 30.707 0 0 0 907.812 26.563 A 17.073 17.073 0 0 0 904.045 26.962 A 13.848 13.848 0 0 0 901.099 27.979 Q 898.145 29.395 896.094 32.031 Q 894.043 34.668 892.969 38.379 Q 891.895 42.09 891.895 46.68 L 891.895 75.977 L 886.914 75.977 L 886.914 22.9 L 891.162 22.9 L 891.65 32.91 L 891.943 32.91 Q 893.164 29.834 895.386 27.368 A 16.432 16.432 0 0 1 900.769 23.443 A 19.507 19.507 0 0 1 900.781 23.438 A 15.792 15.792 0 0 1 905.325 22.146 A 20.151 20.151 0 0 1 908.008 21.973 Q 910.107 21.973 911.963 22.217 A 27.657 27.657 0 0 1 914.346 22.633 A 23.323 23.323 0 0 1 915.43 22.9 Z M 131.481 55.766 A 43.398 43.398 0 0 0 131.934 49.365 A 43.958 43.958 0 0 0 131.473 42.865 A 32.78 32.78 0 0 0 129.346 35.059 Q 126.758 28.857 121.606 25.366 A 17.912 17.912 0 0 0 121.413 25.237 Q 118.403 23.253 114.533 22.44 A 28.151 28.151 0 0 0 108.74 21.875 Q 101.27 21.875 95.923 25.171 Q 90.576 28.467 87.72 34.644 A 26.121 26.121 0 0 0 87.424 35.306 Q 84.863 41.274 84.863 49.365 Q 84.863 55.566 86.426 60.62 A 29.442 29.442 0 0 0 87.297 63.06 A 24.338 24.338 0 0 0 90.991 69.336 A 20.188 20.188 0 0 0 98.34 74.976 A 21.202 21.202 0 0 0 102.991 76.459 A 26.861 26.861 0 0 0 108.252 76.953 A 29.518 29.518 0 0 0 112.939 76.597 A 21.919 21.919 0 0 0 118.53 74.951 A 20.057 20.057 0 0 0 125.928 69.287 Q 128.906 65.625 130.42 60.571 A 34.426 34.426 0 0 0 131.481 55.766 Z M 757.36 55.766 A 43.398 43.398 0 0 0 757.813 49.365 A 43.958 43.958 0 0 0 757.352 42.865 A 32.78 32.78 0 0 0 755.225 35.059 Q 752.637 28.857 747.485 25.366 A 17.912 17.912 0 0 0 747.292 25.237 Q 744.282 23.253 740.412 22.44 A 28.151 28.151 0 0 0 734.619 21.875 Q 727.148 21.875 721.802 25.171 Q 716.455 28.467 713.599 34.644 A 26.121 26.121 0 0 0 713.303 35.306 Q 710.742 41.274 710.742 49.365 Q 710.742 55.566 712.305 60.62 A 29.442 29.442 0 0 0 713.176 63.06 A 24.338 24.338 0 0 0 716.87 69.336 A 20.188 20.188 0 0 0 724.219 74.976 A 21.202 21.202 0 0 0 728.87 76.459 A 26.861 26.861 0 0 0 734.131 76.953 A 29.518 29.518 0 0 0 738.818 76.597 A 21.919 21.919 0 0 0 744.409 74.951 A 20.057 20.057 0 0 0 751.807 69.287 Q 754.785 65.625 756.299 60.571 A 34.426 34.426 0 0 0 757.36 55.766 Z M 696.191 0 L 696.191 75.977 L 691.211 75.977 L 691.211 0 L 696.191 0 Z M 89.941 49.365 A 41.388 41.388 0 0 0 90.325 55.138 Q 90.771 58.306 91.738 61.016 A 25.395 25.395 0 0 0 91.943 61.572 A 19.18 19.18 0 0 0 94.56 66.35 A 16.214 16.214 0 0 0 98.022 69.727 Q 102.1 72.656 108.35 72.656 Q 114.746 72.656 118.848 69.727 Q 122.949 66.797 124.902 61.523 A 30.421 30.421 0 0 0 126.454 55.274 A 41.53 41.53 0 0 0 126.855 49.365 A 41.201 41.201 0 0 0 126.406 43.135 A 30.932 30.932 0 0 0 125 37.451 Q 123.145 32.227 119.141 29.224 A 14.328 14.328 0 0 0 113.948 26.816 Q 111.934 26.314 109.577 26.235 A 26.6 26.6 0 0 0 108.691 26.221 A 22.011 22.011 0 0 0 102.995 26.915 A 15.132 15.132 0 0 0 94.702 32.373 A 20.938 20.938 0 0 0 91.246 39.302 Q 89.941 43.691 89.941 49.365 Z M 715.82 49.365 A 41.388 41.388 0 0 0 716.203 55.138 Q 716.65 58.306 717.617 61.016 A 25.395 25.395 0 0 0 717.822 61.572 A 19.18 19.18 0 0 0 720.439 66.35 A 16.214 16.214 0 0 0 723.901 69.727 Q 727.979 72.656 734.229 72.656 Q 740.625 72.656 744.727 69.727 Q 748.828 66.797 750.781 61.523 A 30.421 30.421 0 0 0 752.333 55.274 A 41.53 41.53 0 0 0 752.734 49.365 A 41.201 41.201 0 0 0 752.285 43.135 A 30.932 30.932 0 0 0 750.879 37.451 Q 749.023 32.227 745.02 29.224 A 14.328 14.328 0 0 0 739.827 26.816 Q 737.813 26.314 735.455 26.235 A 26.6 26.6 0 0 0 734.57 26.221 A 22.011 22.011 0 0 0 728.874 26.915 A 15.132 15.132 0 0 0 720.581 32.373 A 20.938 20.938 0 0 0 717.125 39.302 Q 715.82 43.691 715.82 49.365 Z M 416.309 50.146 L 416.309 49.365 A 51.194 51.194 0 0 0 415.932 42.934 Q 415.536 39.819 414.725 37.256 A 20.302 20.302 0 0 0 412.354 32.153 A 12.764 12.764 0 0 0 404.329 26.699 A 21.008 21.008 0 0 0 399.463 26.172 A 20.18 20.18 0 0 0 393.765 26.932 A 14.779 14.779 0 0 0 385.962 32.324 A 20.204 20.204 0 0 0 382.9 38.373 Q 381.299 43.329 381.299 50.195 Q 381.299 57.154 383.037 61.997 A 18.186 18.186 0 0 0 385.669 66.943 A 14.002 14.002 0 0 0 393.829 72.091 A 22.387 22.387 0 0 0 399.023 72.656 Q 408.398 72.656 412.354 66.821 A 20.005 20.005 0 0 0 414.877 61.377 Q 416.309 56.667 416.309 50.146 Z M 777.441 48.682 L 777.441 49.512 A 51.629 51.629 0 0 0 777.71 54.941 Q 778.161 59.197 779.37 62.427 A 18.264 18.264 0 0 0 781.345 66.308 A 13.666 13.666 0 0 0 785.181 70.117 A 15.044 15.044 0 0 0 790.297 72.204 Q 792.328 72.642 794.673 72.656 A 25.988 25.988 0 0 0 794.824 72.656 A 19.127 19.127 0 0 0 799.406 72.133 A 14.467 14.467 0 0 0 804.395 69.873 A 15.838 15.838 0 0 0 808.806 65.009 A 21.234 21.234 0 0 0 810.352 61.816 Q 812.126 57.254 812.365 51.009 A 51.907 51.907 0 0 0 812.402 49.023 A 46.86 46.86 0 0 0 812.006 42.708 Q 811.581 39.597 810.703 37.057 A 18.773 18.773 0 0 0 808.13 32.031 A 13.82 13.82 0 0 0 799.083 26.54 A 21.22 21.22 0 0 0 795.312 26.221 A 22.819 22.819 0 0 0 790.93 26.619 Q 788.199 27.154 786.024 28.404 A 13.869 13.869 0 0 0 785.327 28.833 A 14.756 14.756 0 0 0 780.361 34.375 A 19.012 19.012 0 0 0 779.419 36.45 Q 777.49 41.455 777.441 48.682 Z M 537.549 45.752 L 570.605 45.752 A 34.592 34.592 0 0 0 570.241 40.605 A 25.333 25.333 0 0 0 568.945 35.498 Q 567.285 31.055 563.94 28.589 A 12.218 12.218 0 0 0 559.323 26.53 Q 557.635 26.148 555.682 26.125 A 21.439 21.439 0 0 0 555.42 26.123 A 18.641 18.641 0 0 0 549.61 26.989 A 15.266 15.266 0 0 0 543.091 31.177 Q 538.379 36.23 537.549 45.752 Z M 638.428 45.752 L 671.484 45.752 A 34.592 34.592 0 0 0 671.12 40.605 A 25.333 25.333 0 0 0 669.824 35.498 Q 668.164 31.055 664.819 28.589 A 12.218 12.218 0 0 0 660.202 26.53 Q 658.514 26.148 656.56 26.125 A 21.439 21.439 0 0 0 656.299 26.123 A 18.641 18.641 0 0 0 650.489 26.989 A 15.266 15.266 0 0 0 643.97 31.177 Q 639.258 36.23 638.428 45.752 Z M 834.131 45.752 L 867.188 45.752 A 34.592 34.592 0 0 0 866.823 40.605 A 25.333 25.333 0 0 0 865.527 35.498 Q 863.867 31.055 860.522 28.589 A 12.218 12.218 0 0 0 855.905 26.53 Q 854.217 26.148 852.264 26.125 A 21.439 21.439 0 0 0 852.002 26.123 A 18.641 18.641 0 0 0 846.192 26.989 A 15.266 15.266 0 0 0 839.673 31.177 Q 834.961 36.23 834.131 45.752 Z" vector-effect="non-scaling-stroke"/></g></svg>