<svg width="421.191" height="76.954" viewBox="0 0 421.191 76.954" xmlns="http://www.w3.org/2000/svg"><g id="svgGroup" stroke-linecap="round" fill-rule="evenodd" font-size="9pt" stroke="#ffffff" stroke-width="0.25mm" fill="#ffffff" style="stroke:#ffffff;stroke-width:0.25mm;fill:#ffffff"><path d="M 305.273 71.436 L 305.273 75.977 L 266.26 75.977 L 266.26 4.59 L 305.273 4.59 L 305.273 9.131 L 271.289 9.131 L 271.289 36.182 L 303.369 36.182 L 303.369 40.723 L 271.289 40.723 L 271.289 71.436 L 305.273 71.436 Z M 5.029 44.043 L 5.029 75.977 L 0 75.977 L 0 4.59 L 39.063 4.59 L 39.063 9.131 L 5.029 9.131 L 5.029 39.551 L 37.207 39.551 L 37.207 44.043 L 5.029 44.043 Z M 188.428 41.26 L 188.428 75.977 L 183.545 75.977 L 183.545 41.553 Q 183.545 36.718 182.195 33.452 A 11.002 11.002 0 0 0 179.932 29.932 Q 176.714 26.627 170.9 26.265 A 23.64 23.64 0 0 0 169.434 26.221 A 23.935 23.935 0 0 0 164.142 26.77 Q 159.179 27.895 156.079 31.323 Q 151.465 36.426 151.465 46.729 L 151.465 75.977 L 146.533 75.977 L 146.533 22.9 L 150.537 22.9 L 151.27 32.568 L 151.563 32.568 A 18.864 18.864 0 0 1 155.444 27.173 A 17.255 17.255 0 0 1 159.582 24.203 A 21.114 21.114 0 0 1 161.523 23.315 A 19.621 19.621 0 0 1 165.826 22.171 A 27.019 27.019 0 0 1 169.922 21.875 A 27.257 27.257 0 0 1 175.324 22.377 Q 178.511 23.022 180.964 24.495 A 14.445 14.445 0 0 1 183.643 26.562 A 14.287 14.287 0 0 1 187.037 32.015 Q 188.428 35.864 188.428 41.26 Z M 362.109 41.26 L 362.109 75.977 L 357.227 75.977 L 357.227 41.553 Q 357.227 36.718 355.877 33.452 A 11.002 11.002 0 0 0 353.613 29.932 Q 350.395 26.627 344.582 26.265 A 23.64 23.64 0 0 0 343.115 26.221 A 23.935 23.935 0 0 0 337.824 26.77 Q 332.861 27.895 329.761 31.323 Q 325.146 36.426 325.146 46.729 L 325.146 75.977 L 320.215 75.977 L 320.215 22.9 L 324.219 22.9 L 324.951 32.568 L 325.244 32.568 A 18.864 18.864 0 0 1 329.126 27.173 A 17.255 17.255 0 0 1 333.263 24.203 A 21.114 21.114 0 0 1 335.205 23.315 A 19.621 19.621 0 0 1 339.508 22.171 A 27.019 27.019 0 0 1 343.604 21.875 A 27.257 27.257 0 0 1 349.006 22.377 Q 352.193 23.022 354.645 24.495 A 14.445 14.445 0 0 1 357.324 26.562 A 14.287 14.287 0 0 1 360.719 32.015 Q 362.109 35.864 362.109 41.26 Z M 416.26 32.617 L 416.65 32.617 A 118.418 118.418 0 0 1 416.479 29.932 A 145.692 145.692 0 0 1 416.357 27.051 A 191.78 191.78 0 0 1 416.284 24.194 A 146.551 146.551 0 0 1 416.26 21.582 L 416.26 0 L 421.191 0 L 421.191 75.977 L 417.188 75.977 L 416.553 66.26 L 416.26 66.26 Q 414.941 69.189 412.622 71.631 A 15.983 15.983 0 0 1 408.498 74.73 A 19.364 19.364 0 0 1 406.836 75.513 A 17.736 17.736 0 0 1 403.145 76.57 Q 401.406 76.881 399.417 76.94 A 31.741 31.741 0 0 1 398.486 76.953 A 27.5 27.5 0 0 1 391.757 76.179 A 18.201 18.201 0 0 1 381.909 70.093 A 22.171 22.171 0 0 1 377.971 62.739 Q 376.932 59.559 376.51 55.699 A 51.586 51.586 0 0 1 376.221 50.098 A 50.511 50.511 0 0 1 376.807 42.131 Q 378.097 34.07 382.227 29.102 A 19.59 19.59 0 0 1 395.113 22.129 A 28.343 28.343 0 0 1 398.975 21.875 Q 403.383 21.875 406.688 23.181 A 15.44 15.44 0 0 1 406.958 23.291 A 17.616 17.616 0 0 1 410.907 25.548 A 15.497 15.497 0 0 1 412.671 27.124 A 17.524 17.524 0 0 1 416.26 32.617 Z M 227.686 71.484 L 227.686 75.586 A 22.577 22.577 0 0 1 226.216 76.033 Q 225.457 76.237 224.603 76.419 A 38.92 38.92 0 0 1 224.023 76.538 Q 221.924 76.953 219.385 76.953 A 19.878 19.878 0 0 1 216.228 76.716 Q 214.465 76.432 213.008 75.809 A 11.053 11.053 0 0 1 211.914 75.269 A 10.295 10.295 0 0 1 207.877 71.075 A 13.066 13.066 0 0 1 207.422 70.142 Q 206.245 67.466 205.983 63.654 A 33.234 33.234 0 0 1 205.908 61.377 L 205.908 27.002 L 197.998 27.002 L 197.998 24.072 L 205.859 22.559 L 207.568 10.059 L 210.84 10.059 L 210.84 22.9 L 227.393 22.9 L 227.393 27.002 L 210.84 27.002 L 210.84 61.084 A 24.708 24.708 0 0 0 211.027 64.233 Q 211.234 65.839 211.67 67.148 A 9.644 9.644 0 0 0 212.964 69.751 A 6.685 6.685 0 0 0 216.559 72.254 Q 218.034 72.705 219.922 72.705 A 27.18 27.18 0 0 0 222.601 72.578 A 22.228 22.228 0 0 0 224.194 72.363 A 25.515 25.515 0 0 0 225.946 72 Q 226.765 71.798 227.482 71.555 A 15.566 15.566 0 0 0 227.686 71.484 Z M 77.539 22.9 L 76.758 27.441 A 24.773 24.773 0 0 0 73.486 26.782 A 25.313 25.313 0 0 0 71.316 26.593 A 30.707 30.707 0 0 0 69.922 26.563 A 17.073 17.073 0 0 0 66.155 26.962 A 13.848 13.848 0 0 0 63.208 27.979 Q 60.254 29.395 58.203 32.031 Q 56.152 34.668 55.078 38.379 Q 54.004 42.09 54.004 46.68 L 54.004 75.977 L 49.023 75.977 L 49.023 22.9 L 53.271 22.9 L 53.76 32.91 L 54.053 32.91 Q 55.273 29.834 57.495 27.368 A 16.432 16.432 0 0 1 62.878 23.443 A 19.507 19.507 0 0 1 62.891 23.438 A 15.792 15.792 0 0 1 67.435 22.146 A 20.151 20.151 0 0 1 70.117 21.973 Q 72.217 21.973 74.072 22.217 A 27.657 27.657 0 0 1 76.455 22.633 A 23.323 23.323 0 0 1 77.539 22.9 Z M 131.481 55.766 A 43.398 43.398 0 0 0 131.934 49.365 A 43.958 43.958 0 0 0 131.473 42.865 A 32.78 32.78 0 0 0 129.346 35.059 Q 126.758 28.857 121.606 25.366 A 17.912 17.912 0 0 0 121.413 25.237 Q 118.403 23.253 114.533 22.44 A 28.151 28.151 0 0 0 108.74 21.875 Q 101.27 21.875 95.923 25.171 Q 90.576 28.467 87.72 34.644 A 26.121 26.121 0 0 0 87.424 35.306 Q 84.863 41.274 84.863 49.365 Q 84.863 55.566 86.426 60.62 A 29.442 29.442 0 0 0 87.297 63.06 A 24.338 24.338 0 0 0 90.991 69.336 A 20.188 20.188 0 0 0 98.34 74.976 A 21.202 21.202 0 0 0 102.991 76.459 A 26.861 26.861 0 0 0 108.252 76.953 A 29.518 29.518 0 0 0 112.939 76.597 A 21.919 21.919 0 0 0 118.53 74.951 A 20.057 20.057 0 0 0 125.928 69.287 Q 128.906 65.625 130.42 60.571 A 34.426 34.426 0 0 0 131.481 55.766 Z M 89.941 49.365 A 41.388 41.388 0 0 0 90.325 55.138 Q 90.771 58.306 91.738 61.016 A 25.395 25.395 0 0 0 91.943 61.572 A 19.18 19.18 0 0 0 94.56 66.35 A 16.214 16.214 0 0 0 98.022 69.727 Q 102.1 72.656 108.35 72.656 Q 114.746 72.656 118.848 69.727 Q 122.949 66.797 124.902 61.523 A 30.421 30.421 0 0 0 126.454 55.274 A 41.53 41.53 0 0 0 126.855 49.365 A 41.201 41.201 0 0 0 126.406 43.135 A 30.932 30.932 0 0 0 125 37.451 Q 123.145 32.227 119.141 29.224 A 14.328 14.328 0 0 0 113.948 26.816 Q 111.934 26.314 109.577 26.235 A 26.6 26.6 0 0 0 108.691 26.221 A 22.011 22.011 0 0 0 102.995 26.915 A 15.132 15.132 0 0 0 94.702 32.373 A 20.938 20.938 0 0 0 91.246 39.302 Q 89.941 43.691 89.941 49.365 Z M 416.309 50.146 L 416.309 49.365 A 51.194 51.194 0 0 0 415.932 42.934 Q 415.536 39.819 414.725 37.256 A 20.302 20.302 0 0 0 412.354 32.153 A 12.764 12.764 0 0 0 404.329 26.699 A 21.008 21.008 0 0 0 399.463 26.172 A 20.18 20.18 0 0 0 393.765 26.932 A 14.779 14.779 0 0 0 385.962 32.324 A 20.204 20.204 0 0 0 382.9 38.373 Q 381.299 43.329 381.299 50.195 Q 381.299 57.154 383.037 61.997 A 18.186 18.186 0 0 0 385.669 66.943 A 14.002 14.002 0 0 0 393.829 72.091 A 22.387 22.387 0 0 0 399.023 72.656 Q 408.398 72.656 412.354 66.821 A 20.005 20.005 0 0 0 414.877 61.377 Q 416.309 56.667 416.309 50.146 Z" vector-effect="non-scaling-stroke"/></g></svg>