<svg width="369.1" height="72.6" viewBox="0 0 369.1 72.6" xmlns="http://www.w3.org/2000/svg"><g id="svgGroup" stroke-linecap="round" fill-rule="evenodd" font-size="9pt" stroke="#ffffff" stroke-width="0.25mm" fill="#ffffff" style="stroke:#ffffff;stroke-width:0.25mm;fill:#ffffff"><path d="M 1.1 2.4 L 32.9 55.95 A 18.126 18.126 0 0 1 33.044 56.194 A 15.035 15.035 0 0 1 33.175 56.425 Q 33.3 56.65 33.45 57 A 9.161 9.161 0 0 1 33.557 56.76 Q 33.607 56.652 33.654 56.559 A 4.122 4.122 0 0 1 33.725 56.425 A 15.035 15.035 0 0 1 33.856 56.194 A 18.124 18.124 0 0 1 34 55.95 L 64.8 2.4 Q 65.05 2 65.5 2 L 65.9 2 L 65.9 72 L 64.9 72 L 64.9 5.1 L 64.9 4.6 Q 64.9 4.35 64.95 4.1 L 34.3 57.5 A 2.017 2.017 0 0 1 34.128 57.716 Q 33.915 57.945 33.702 57.989 A 0.499 0.499 0 0 1 33.6 58 L 33.3 58 A 0.562 0.562 0 0 1 33.016 57.917 Q 32.832 57.811 32.648 57.567 A 2.423 2.423 0 0 1 32.6 57.5 L 0.95 4.15 A 2.603 2.603 0 0 1 0.993 4.453 A 2.16 2.16 0 0 1 1 4.625 L 1 5.1 L 1 72 L 0 72 L 0 2 L 0.4 2 A 0.801 0.801 0 0 1 0.772 2.085 Q 0.932 2.167 1.052 2.329 A 1.09 1.09 0 0 1 1.1 2.4 Z M 309.2 72 L 308 72 L 308 23 L 308.3 23 Q 309 23 309 23.8 L 309.15 33.05 A 27.03 27.03 0 0 1 312.752 28.114 A 22.511 22.511 0 0 1 316.1 25.15 A 15.409 15.409 0 0 1 321.765 22.553 A 14.771 14.771 0 0 1 325 22.2 A 15.31 15.31 0 0 1 328.898 22.669 A 10.725 10.725 0 0 1 334.225 25.85 A 14.232 14.232 0 0 1 336.837 30.073 Q 337.592 31.909 338.024 34.14 A 29.127 29.127 0 0 1 338.35 36.25 A 22.045 22.045 0 0 1 339.169 32.925 A 16.971 16.971 0 0 1 340.425 30.05 A 16.365 16.365 0 0 1 342.513 27.089 A 14.099 14.099 0 0 1 344 25.65 Q 346.1 23.9 348.675 23.05 Q 351.25 22.2 354 22.2 A 17.16 17.16 0 0 1 357.676 22.58 A 14.255 14.255 0 0 1 360.25 23.4 Q 363.05 24.6 365 26.925 A 14.847 14.847 0 0 1 367.007 30.083 A 19.55 19.55 0 0 1 368.025 32.7 A 22.944 22.944 0 0 1 368.864 36.648 A 31.5 31.5 0 0 1 369.1 40.6 L 369.1 72 L 367.9 72 L 367.9 40.6 A 31.582 31.582 0 0 0 367.546 35.707 Q 367.144 33.152 366.287 31.096 A 13.884 13.884 0 0 0 364.275 27.675 A 11.788 11.788 0 0 0 356.577 23.385 A 17.298 17.298 0 0 0 354 23.2 Q 351.05 23.2 348.325 24.3 Q 345.6 25.4 343.5 27.575 A 14.793 14.793 0 0 0 341.11 30.893 A 18.625 18.625 0 0 0 340.15 33 A 18.016 18.016 0 0 0 339.184 36.704 Q 338.9 38.527 338.9 40.6 L 338.9 72 L 337.7 72 L 337.7 40.6 A 34.894 34.894 0 0 0 337.506 36.833 A 25.463 25.463 0 0 0 336.875 33.275 Q 336.05 30.05 334.425 27.8 Q 332.8 25.55 330.4 24.375 A 11.432 11.432 0 0 0 326.949 23.339 A 14.639 14.639 0 0 0 324.9 23.2 A 14.073 14.073 0 0 0 316.237 26.178 A 17.323 17.323 0 0 0 316.175 26.225 A 23.337 23.337 0 0 0 312.065 30.296 A 32.125 32.125 0 0 0 309.2 34.6 L 309.2 72 Z M 228 1.9 L 228 35.8 L 232.7 35.8 A 30.036 30.036 0 0 0 233.37 35.793 Q 233.632 35.787 233.864 35.776 A 14.313 14.313 0 0 0 234.3 35.75 A 5.491 5.491 0 0 0 234.974 35.658 A 4.29 4.29 0 0 0 235.475 35.525 Q 236 35.35 236.5 35 Q 236.902 34.718 237.369 34.307 A 15.375 15.375 0 0 0 237.6 34.1 L 270.2 2.8 Q 270.694 2.396 271.027 2.213 A 2.197 2.197 0 0 1 271.1 2.175 A 1.503 1.503 0 0 1 271.438 2.057 Q 271.601 2.02 271.792 2.007 A 3.105 3.105 0 0 1 272 2 L 272.6 2 L 238.6 34.6 A 12.974 12.974 0 0 1 238.071 35.071 Q 237.585 35.479 237.175 35.725 A 4.029 4.029 0 0 1 236.542 36.029 Q 236.225 36.15 235.854 36.242 A 7.455 7.455 0 0 1 235.6 36.3 A 5.056 5.056 0 0 1 236.493 36.53 A 4.023 4.023 0 0 1 237.175 36.85 A 6.15 6.15 0 0 1 237.968 37.413 A 7.831 7.831 0 0 1 238.5 37.9 L 274.6 72 L 274.1 72 Q 273.514 72 273.188 71.909 A 1.094 1.094 0 0 1 273.025 71.85 Q 272.7 71.7 272.3 71.3 L 237.9 38.8 A 20.991 20.991 0 0 0 237.387 38.336 Q 237.142 38.122 236.924 37.948 A 9.058 9.058 0 0 0 236.6 37.7 Q 236.05 37.3 235.5 37.1 A 4.306 4.306 0 0 0 234.658 36.89 A 5.114 5.114 0 0 0 234.3 36.85 Q 233.853 36.816 233.264 36.805 A 30.999 30.999 0 0 0 232.7 36.8 L 228 36.8 L 228 72 L 226.8 72 L 226.8 1.9 L 228 1.9 Z M 109.6 0 L 110.8 0 L 110.8 45.2 L 113.1 45.2 Q 113.55 45.2 114.15 45.1 Q 114.75 45 115.5 44.3 L 138.8 23.8 A 3.843 3.843 0 0 1 139.15 23.488 Q 139.347 23.334 139.544 23.229 A 2.284 2.284 0 0 1 139.6 23.2 A 1.762 1.762 0 0 1 140.019 23.056 Q 140.281 23 140.6 23 L 141.5 23 L 116.7 44.7 A 5.835 5.835 0 0 1 116.2 45.115 Q 115.936 45.309 115.68 45.442 A 3.017 3.017 0 0 1 115.45 45.55 Q 116.15 45.75 116.65 46.075 Q 117.15 46.4 117.6 46.8 L 143.5 72 L 142.6 72 A 2.717 2.717 0 0 1 142.269 71.981 Q 142.094 71.959 141.943 71.914 A 1.615 1.615 0 0 1 141.9 71.9 A 1.055 1.055 0 0 1 141.703 71.808 Q 141.475 71.675 141.2 71.4 L 116.6 47.5 A 7.847 7.847 0 0 0 116.206 47.131 A 5.846 5.846 0 0 0 115.825 46.825 Q 115.45 46.55 115.025 46.4 A 4.463 4.463 0 0 0 114.515 46.255 A 5.705 5.705 0 0 0 114.075 46.175 A 6.594 6.594 0 0 0 113.65 46.129 Q 113.412 46.111 113.139 46.104 A 13.472 13.472 0 0 0 112.8 46.1 L 110.8 46.1 L 110.8 72 L 109.6 72 L 109.6 0 Z M 187.6 43.8 L 149.8 43.8 A 9.816 9.816 0 0 0 149.705 44.863 A 8.669 8.669 0 0 0 149.7 45.15 L 149.7 46.5 A 43.642 43.642 0 0 0 150.013 51.863 Q 150.351 54.591 151.055 56.961 A 26.774 26.774 0 0 0 151.15 57.275 A 25.401 25.401 0 0 0 152.906 61.575 A 19.726 19.726 0 0 0 155.275 65.125 Q 157.95 68.3 161.725 69.95 A 19.819 19.819 0 0 0 167.852 71.497 A 24.048 24.048 0 0 0 170.1 71.6 A 32.139 32.139 0 0 0 173.278 71.451 Q 175.459 71.234 177.225 70.7 Q 180.2 69.8 182.175 68.7 Q 184.15 67.6 185.175 66.7 A 14.702 14.702 0 0 1 185.534 66.394 Q 186.244 65.81 186.491 65.8 A 0.21 0.21 0 0 1 186.5 65.8 Q 186.7 65.8 186.9 66 L 187.1 66.2 Q 186.25 67.25 184.575 68.375 A 19.72 19.72 0 0 1 182.75 69.456 A 26.666 26.666 0 0 1 180.625 70.45 A 27.957 27.957 0 0 1 177.296 71.591 A 33.311 33.311 0 0 1 175.65 72 Q 172.95 72.6 170.1 72.6 A 24.64 24.64 0 0 1 165.031 72.099 A 19.824 19.824 0 0 1 161.05 70.825 Q 157.05 69.05 154.275 65.7 A 21.661 21.661 0 0 1 151.304 60.927 A 27.725 27.725 0 0 1 150 57.5 Q 148.5 52.65 148.5 46.5 A 35.054 35.054 0 0 1 148.959 40.718 A 28.505 28.505 0 0 1 149.95 36.625 A 23.592 23.592 0 0 1 152.2 31.645 A 20.167 20.167 0 0 1 154.15 28.95 Q 156.9 25.75 160.875 23.975 A 20.283 20.283 0 0 1 166.555 22.41 A 25.867 25.867 0 0 1 169.9 22.2 A 19.035 19.035 0 0 1 176.014 23.17 A 17.902 17.902 0 0 1 177.1 23.575 Q 180.45 24.95 182.925 27.65 A 18.071 18.071 0 0 1 185.82 31.942 A 22.393 22.393 0 0 1 186.8 34.275 A 23.365 23.365 0 0 1 187.913 38.919 A 31.859 31.859 0 0 1 188.2 43.3 A 0.565 0.565 0 0 1 188.18 43.454 A 0.397 0.397 0 0 1 188.025 43.675 A 0.665 0.665 0 0 1 187.736 43.79 A 0.885 0.885 0 0 1 187.6 43.8 Z M 88.4 23 L 89.6 23 L 89.6 72 L 88.4 72 L 88.4 23 Z M 287.5 23 L 288.7 23 L 288.7 72 L 287.5 72 L 287.5 23 Z M 149.85 42.9 L 187.1 42.9 A 29.697 29.697 0 0 0 186.814 38.683 A 21.941 21.941 0 0 0 185.8 34.475 A 19.256 19.256 0 0 0 184.042 30.76 A 15.785 15.785 0 0 0 182.175 28.3 Q 179.85 25.8 176.7 24.5 Q 173.55 23.2 169.9 23.2 A 23.416 23.416 0 0 0 165.472 23.602 A 18.765 18.765 0 0 0 161.975 24.625 Q 158.45 26.05 155.9 28.625 A 18.843 18.843 0 0 0 152.379 33.627 A 22.159 22.159 0 0 0 151.825 34.85 A 26.907 26.907 0 0 0 150.188 40.484 A 32.191 32.191 0 0 0 149.85 42.9 Z M 91.244 6.331 A 2.392 2.392 0 0 0 91.8 4.8 A 2.601 2.601 0 0 0 91.564 3.693 A 2.827 2.827 0 0 0 90.925 2.825 Q 90.05 2 89 2 A 2.804 2.804 0 0 0 88.135 2.131 A 2.755 2.755 0 0 0 87.025 2.825 Q 86.2 3.65 86.2 4.8 A 2.439 2.439 0 0 0 86.476 5.939 A 2.993 2.993 0 0 0 87.025 6.675 Q 87.85 7.5 89 7.5 A 2.543 2.543 0 0 0 90.185 7.209 A 3.283 3.283 0 0 0 90.925 6.675 A 3.368 3.368 0 0 0 91.244 6.331 Z M 290.344 6.331 A 2.392 2.392 0 0 0 290.9 4.8 A 2.601 2.601 0 0 0 290.664 3.693 A 2.827 2.827 0 0 0 290.025 2.825 Q 289.15 2 288.1 2 A 2.804 2.804 0 0 0 287.235 2.131 A 2.755 2.755 0 0 0 286.125 2.825 Q 285.3 3.65 285.3 4.8 A 2.439 2.439 0 0 0 285.576 5.939 A 2.993 2.993 0 0 0 286.125 6.675 Q 286.95 7.5 288.1 7.5 A 2.543 2.543 0 0 0 289.285 7.209 A 3.283 3.283 0 0 0 290.025 6.675 A 3.368 3.368 0 0 0 290.344 6.331 Z" vector-effect="non-scaling-stroke"/></g></svg>